<svg width="76" height="101" viewBox="0 0 76 101" fill="none" xmlns="http://www.w3.org/2000/svg">
<path d="M38 76.75C40.5196 76.75 42.9359 75.7491 44.7175 73.9675C46.4991 72.1859 47.5 69.7696 47.5 67.25C47.5 64.7304 46.4991 62.3141 44.7175 60.5325C42.9359 58.7509 40.5196 57.75 38 57.75C35.4804 57.75 33.0641 58.7509 31.2825 60.5325C29.5009 62.3141 28.5 64.7304 28.5 67.25C28.5 69.7696 29.5009 72.1859 31.2825 73.9675C33.0641 75.7491 35.4804 76.75 38 76.75ZM66.5 34C69.0196 34 71.4359 35.0009 73.2175 36.7825C74.9991 38.5641 76 40.9804 76 43.5V91C76 93.5196 74.9991 95.9359 73.2175 97.7175C71.4359 99.4991 69.0196 100.5 66.5 100.5H9.5C6.98044 100.5 4.56408 99.4991 2.78249 97.7175C1.00089 95.9359 0 93.5196 0 91V43.5C0 40.9804 1.00089 38.5641 2.78249 36.7825C4.56408 35.0009 6.98044 34 9.5 34H14.25V24.5C14.25 18.2011 16.7522 12.1602 21.2062 7.70621C25.6602 3.25222 31.7011 0.75 38 0.75C41.1189 0.75 44.2072 1.36431 47.0887 2.55786C49.9702 3.75141 52.5884 5.50082 54.7938 7.70621C56.9992 9.91161 58.7486 12.5298 59.9421 15.4113C61.1357 18.2928 61.75 21.3811 61.75 24.5V34H66.5ZM38 10.25C34.2207 10.25 30.5961 11.7513 27.9237 14.4237C25.2513 17.0961 23.75 20.7207 23.75 24.5V34H52.25V24.5C52.25 20.7207 50.7487 17.0961 48.0763 14.4237C45.4039 11.7513 41.7793 10.25 38 10.25Z" fill="url(#paint0_linear_109_1328)"/>
<defs>
<linearGradient id="paint0_linear_109_1328" x1="38.2147" y1="100.5" x2="38.2147" y2="0.749998" gradientUnits="userSpaceOnUse">
<stop stop-color="#7842F6"/>
<stop offset="1" stop-color="#509CE9"/>
</linearGradient>
</defs>
</svg>
