<svg width="37" height="36" viewBox="0 0 37 36" fill="none" xmlns="http://www.w3.org/2000/svg">
<path d="M18.5 28.8C14.75 28.8 11.435 26.88 9.5 24C9.545 21 15.5 19.35 18.5 19.35C21.5 19.35 27.455 21 27.5 24C26.5083 25.4766 25.1688 26.6867 23.5993 27.5238C22.0299 28.3608 20.2787 28.7991 18.5 28.8ZM18.5 7.5C19.6935 7.5 20.8381 7.97411 21.682 8.81802C22.5259 9.66193 23 10.8065 23 12C23 13.1935 22.5259 14.3381 21.682 15.182C20.8381 16.0259 19.6935 16.5 18.5 16.5C17.3065 16.5 16.1619 16.0259 15.318 15.182C14.4741 14.3381 14 13.1935 14 12C14 10.8065 14.4741 9.66193 15.318 8.81802C16.1619 7.97411 17.3065 7.5 18.5 7.5ZM18.5 3C16.5302 3 14.5796 3.38799 12.7597 4.14181C10.9399 4.89563 9.28628 6.00052 7.8934 7.3934C5.08035 10.2064 3.5 14.0218 3.5 18C3.5 21.9782 5.08035 25.7936 7.8934 28.6066C9.28628 29.9995 10.9399 31.1044 12.7597 31.8582C14.5796 32.612 16.5302 33 18.5 33C22.4782 33 26.2936 31.4196 29.1066 28.6066C31.9196 25.7936 33.5 21.9782 33.5 18C33.5 9.705 26.75 3 18.5 3Z" fill="#312D3A"/>
</svg>
