<svg width="20" height="20" viewBox="0 0 20 20" fill="none" xmlns="http://www.w3.org/2000/svg">
<path d="M13.8531 7.85392C13.8067 7.90048 13.7515 7.93742 13.6907 7.96263C13.63 7.98784 13.5649 8.00081 13.4991 8.00081C13.4333 8.00081 13.3682 7.98784 13.3075 7.96263C13.2467 7.93742 13.1916 7.90048 13.1451 7.85392L10.9991 5.70692L10.9991 15.4999C10.9991 15.6325 10.9464 15.7597 10.8527 15.8535C10.7589 15.9472 10.6317 15.9999 10.4991 15.9999C10.3665 15.9999 10.2393 15.9472 10.1456 15.8535C10.0518 15.7597 9.99911 15.6325 9.99911 15.4999L9.99911 5.70692L7.85311 7.85392C7.75922 7.9478 7.63188 8.00055 7.49911 8.00055C7.36633 8.00055 7.23899 7.9478 7.14511 7.85392C7.05122 7.76003 6.99848 7.63269 6.99848 7.49992C6.99848 7.36714 7.05122 7.2398 7.14511 7.14592L10.1451 4.14592C10.1916 4.09935 10.2467 4.06241 10.3075 4.0372C10.3682 4.012 10.4333 3.99902 10.4991 3.99902C10.5649 3.99902 10.63 4.012 10.6907 4.0372C10.7515 4.06241 10.8067 4.09935 10.8531 4.14592L13.8531 7.14592C13.8997 7.19236 13.9366 7.24754 13.9618 7.30828C13.987 7.36903 14 7.43415 14 7.49992C14 7.56568 13.987 7.63081 13.9618 7.69155C13.9366 7.7523 13.8997 7.80747 13.8531 7.85392Z" fill="black"/>
</svg>
