<svg width="20" height="20" viewBox="0 0 20 20" fill="none" xmlns="http://www.w3.org/2000/svg">
<path d="M6.14689 12.1461C6.19334 12.0995 6.24852 12.0626 6.30926 12.0374C6.37001 12.0122 6.43513 11.9992 6.50089 11.9992C6.56666 11.9992 6.63178 12.0122 6.69253 12.0374C6.75327 12.0626 6.80845 12.0995 6.85489 12.1461L9.00089 14.2931L9.00089 4.50008C9.00089 4.36747 9.05357 4.2403 9.14734 4.14653C9.24111 4.05276 9.36829 4.00008 9.50089 4.00008C9.6335 4.00008 9.76068 4.05276 9.85445 4.14653C9.94822 4.2403 10.0009 4.36747 10.0009 4.50008L10.0009 14.2931L12.1469 12.1461C12.2408 12.0522 12.3681 11.9995 12.5009 11.9995C12.6337 11.9995 12.761 12.0522 12.8549 12.1461C12.9488 12.24 13.0015 12.3673 13.0015 12.5001C13.0015 12.6329 12.9488 12.7602 12.8549 12.8541L9.85489 15.8541C9.80845 15.9006 9.75327 15.9376 9.69253 15.9628C9.63178 15.988 9.56666 16.001 9.50089 16.001C9.43513 16.001 9.37001 15.988 9.30926 15.9628C9.24852 15.9376 9.19334 15.9006 9.14689 15.8541L6.14689 12.8541C6.10033 12.8076 6.06339 12.7525 6.03818 12.6917C6.01297 12.631 6 12.5659 6 12.5001C6 12.4343 6.01297 12.3692 6.03818 12.3084C6.06339 12.2477 6.10033 12.1925 6.14689 12.1461Z" fill="black"/>
</svg>
