<svg width="20" height="20" viewBox="0 0 20 20" fill="none" xmlns="http://www.w3.org/2000/svg">
<path d="M18.3334 5.00016V15.0002C18.3334 15.4585 18.1701 15.851 17.8434 16.1777C17.5167 16.5043 17.1245 16.6674 16.6667 16.6668H3.33342C2.87508 16.6668 2.48258 16.5035 2.15592 16.1768C1.82925 15.8502 1.66619 15.4579 1.66675 15.0002V5.00016C1.66675 4.54183 1.83008 4.14933 2.15675 3.82266C2.48342 3.496 2.87564 3.33294 3.33342 3.3335H16.6667C17.1251 3.3335 17.5176 3.49683 17.8442 3.8235C18.1709 4.15016 18.334 4.54239 18.3334 5.00016ZM3.33342 6.66683H16.6667V5.00016H3.33342V6.66683ZM3.33342 10.0002V15.0002H16.6667V10.0002H3.33342Z" fill="#312D3A"/>
</svg>
