<svg width="20" height="20" viewBox="0 0 20 20" fill="none" xmlns="http://www.w3.org/2000/svg">
<path d="M3.14592 7.85408C3.09935 7.80764 3.06241 7.75246 3.0372 7.69172C3.012 7.63097 2.99902 7.56585 2.99902 7.50008C2.99902 7.43432 3.012 7.36919 3.0372 7.30845C3.06241 7.2477 3.09935 7.19253 3.14592 7.14608L6.14592 4.14608C6.19236 4.09952 6.24754 4.06258 6.30828 4.03737C6.36903 4.01216 6.43415 3.99919 6.49992 3.99919C6.56568 3.99919 6.63081 4.01216 6.69155 4.03737C6.7523 4.06258 6.80747 4.09952 6.85392 4.14608L9.85392 7.14608C9.9004 7.19257 9.93728 7.24776 9.96244 7.3085C9.9876 7.36924 10.0005 7.43434 10.0005 7.50008C10.0005 7.56583 9.9876 7.63093 9.96244 7.69167C9.93728 7.75241 9.9004 7.80759 9.85392 7.85408C9.80743 7.90057 9.75224 7.93745 9.6915 7.96261C9.63076 7.98777 9.56566 8.00071 9.49992 8.00071C9.43417 8.00071 9.36907 7.98777 9.30833 7.96261C9.24759 7.93745 9.1924 7.90057 9.14592 7.85408L6.99992 5.70708L6.99992 15.5001C6.99992 15.6327 6.94724 15.7599 6.85347 15.8536C6.7597 15.9474 6.63253 16.0001 6.49992 16.0001C6.36731 16.0001 6.24013 15.9474 6.14636 15.8536C6.0526 15.7599 5.99992 15.6327 5.99992 15.5001L5.99992 5.70708L3.85392 7.85408C3.80747 7.90065 3.7523 7.93759 3.69155 7.9628C3.63081 7.988 3.56568 8.00098 3.49992 8.00098C3.43415 8.00098 3.36903 7.988 3.30828 7.9628C3.24754 7.93759 3.19236 7.90065 3.14592 7.85408ZM10.1459 12.1461C10.1924 12.0995 10.2475 12.0626 10.3083 12.0374C10.369 12.0122 10.4341 11.9992 10.4999 11.9992C10.5657 11.9992 10.6308 12.0122 10.6916 12.0374C10.7523 12.0626 10.8075 12.0995 10.8539 12.1461L12.9999 14.2931L12.9999 4.50008C12.9999 4.36747 13.0526 4.2403 13.1464 4.14653C13.2401 4.05276 13.3673 4.00008 13.4999 4.00008C13.6325 4.00008 13.7597 4.05276 13.8535 4.14653C13.9472 4.2403 13.9999 4.36747 13.9999 4.50008L13.9999 14.2931L16.1459 12.1461C16.2398 12.0522 16.3671 11.9995 16.4999 11.9995C16.6327 11.9995 16.76 12.0522 16.8539 12.1461C16.9478 12.24 17.0005 12.3673 17.0005 12.5001C17.0005 12.6329 16.9478 12.7602 16.8539 12.8541L13.8539 15.8541C13.8075 15.9006 13.7523 15.9376 13.6916 15.9628C13.6308 15.988 13.5657 16.001 13.4999 16.001C13.4341 16.001 13.369 15.988 13.3083 15.9628C13.2475 15.9376 13.1924 15.9006 13.1459 15.8541L10.1459 12.8541C10.0994 12.8076 10.0624 12.7525 10.0372 12.6917C10.012 12.631 9.99902 12.5658 9.99902 12.5001C9.99902 12.4343 10.012 12.3692 10.0372 12.3084C10.0624 12.2477 10.0994 12.1925 10.1459 12.1461Z" fill="black"/>
</svg>
