<svg width="20" height="20" viewBox="0 0 20 20" fill="none" xmlns="http://www.w3.org/2000/svg">
<path d="M10.8334 15.7497L15.9167 10.6663L17.6667 12.4163L12.5834 17.4997H10.8334V15.7497ZM17.8334 9.41634L18.9167 10.4997C19.0834 10.6663 19.0834 10.9163 18.9167 11.083L18.0834 11.9163L16.3334 10.2497L17.1667 9.41634C17.2501 9.33301 17.3334 9.24968 17.5001 9.24968C17.6667 9.24968 17.7501 9.33301 17.8334 9.41634ZM9.16675 14.9997H3.33341V9.99967H14.2501L18.3334 5.91634V4.99967C18.3334 4.08301 17.5834 3.33301 16.6667 3.33301H3.33341C2.41675 3.33301 1.66675 4.08301 1.66675 4.99967V14.9997C1.66675 15.9163 2.41675 16.6663 3.33341 16.6663H9.16675V14.9997ZM3.33341 4.99967H16.6667V6.66634H3.33341V4.99967Z" fill="#312D3A"/>
</svg>
